<?xml version="1.0" encoding="UTF-8"?>
<svg id="Layer_1" data-name="Layer 1" xmlns="http://www.w3.org/2000/svg" viewBox="0 0 710.08 352.86">
  <defs>
    <style>
      .cls-1 {
        fill: #fff;
      }
    </style>
  </defs>
  <path class="cls-1" d="M369.96,270.69c17.31-10.94,36.76-18.32,55.99-25.16,8.99-3.2,18.2-5.55,27.29-8.34-.95-.53-1.9-1.07-2.85-1.6.03-.02.05-.05.08-.07-5.31-2.4-10.87-4.11-15.96-7.05-4.81-2.78-9.23-6.8-14.55-8.6-.78.09-1.54-.06-2.28-.54-29.65-18.64-67.28-31.08-96.5-49.37-6.49-4.06-11.21-8.64-9.46-17.06,2.35-11.28,28.54-24.19,38.26-30.67,31.11-20.74,61.51-42.47,92.49-63.37,13.95-9.41,36.05-20.64,47.88-31.05,3.45-3.03,6.54-5.53,5.58-10.53-.64-3.31-7.57-15.54-10.52-16.52-3.61-1.19-16.93-.66-21.59-.48-13.64.54-30.36,1.68-43.91,3.05-13.36,1.35-25.62,13.05-35.95,21-80.43,61.83-157.03,129.22-239.66,187.96-15.45,6.23-8.78-5.62-4.08-13.07,33.71-53.37,82.97-104.1,118.7-157.05,4.42-6.55,11-14.54,6.8-22.57-4.85-9.26-14.81-6.37-23.18-4.8-16.93,3.16-41.2,8.96-50.17,24.76l-121.81,189.95c-2.04,3.53-4.69,6.79-6.82,10.24-2.82,4.58-5.73,9.08-8.6,13.62.16.11.32.22.48.33L4.59,333.33c-7.43,12.05-7.07,24.69,10.39,17.38l105.17-71.27s.09.02.14.04c7.31-5.82,15.28-10.95,23-16.22l.44-.61c34.1-19.34,66.82-50.62,100.51-69.34,9.87-5.48,14.24-2.88,23.03,2.6,24.87,15.49,53.36,38.58,77.53,56.35,2.57,1.89,5.34,3.76,7.79,5.91,5.54,2.75,9.52,7.11,14.55,10.59.96.66,1.91,1.3,2.84,1.93Z"/>
  <path class="cls-1" d="M630.71,107.5c-60.99,6.07-120.26,36.06-179.63,49.86-74,17.21-51.75-16.08-7.74-47.58,29.86-21.37,69.92-42.59,102.73-57.53,11.05-5.03,62.63-27.56,70.45-26.81,2.72.26,7.44,2.32,6.93,4.99-.65,3.44-35.52,15.7-41.76,18.69-13.49,6.45-70.4,35.62-74.53,48.91l2.33,6.38c54.85,1.44,112.92-29.48,167.06-29.82,60.55-.39,26.44,39.7-3.95,60.6-66.96,46.04-157.78,114.11-233.35,142.68-12.78,4.83-36.24,11.41-49.67,4.78-3.75-1.85-20.17-10.47-22.19-14.76l263.31-160.39Z"/>
</svg>