<?xml version="1.0" encoding="UTF-8"?>
<svg id="Layer_2" data-name="Layer 2" xmlns="http://www.w3.org/2000/svg" viewBox="0 0 674.24 26.81">
  <g id="Layer_1-2" data-name="Layer 1">
    <path d="M243.08,21.34c1.38-.43.97-3.95-1.01-3.96l-65.31-2.63c-7.36-.06-8.97-12.83-2.39-14.52L243.58,0c4.14.38,6.31,4,5.75,7.94-1.12-.23-4.22.37-4.92-.08-.21-.13-.71-2.4-1.33-2.4h-66.45c-3.67,5.68,8.1,3.79,11.51,3.95,8.81.41,17.67,1.13,26.44,1.53s21.46-.5,29.39,1.08c7.06,1.41,7.26,13.03,1.38,14.54l-69.73.24c-3.85-.6-5.6-4.28-5.24-7.95l5.48.02.77,2.46h66.45Z"/>
    <path d="M667.8,21.34c1.38-.43.97-3.95-1.01-3.96l-65.31-2.63c-7.36-.06-8.97-12.83-2.39-14.52L668.29,0c4.14.38,6.31,4,5.75,7.94-1.12-.23-4.22.37-4.92-.08-.21-.13-.71-2.4-1.33-2.4h-66.45c-3.67,5.68,8.1,3.79,11.51,3.95,8.81.41,17.67,1.13,26.44,1.53s21.46-.5,29.39,1.08c7.06,1.41,7.26,13.03,1.38,14.54l-69.73.24c-3.85-.6-5.6-4.28-5.24-7.95l5.48.02.77,2.46h66.45Z"/>
    <path d="M498.41,0c5.22,1.04,4.87,10.45,4.02,14.42-.52,2.46-1.76,3.1-3.8,4.22l4.03,8.15-6-.24-4.74-7.7h-62.21v7.94h-5.5V0h74.2ZM496.66,5.46h-66.95v7.44h66.95c.74-2.42.74-5.03,0-7.44Z"/>
    <path d="M260.82,18.86v7.94h-5.5V0h74.7c4.96,0,4.64,10.46,4.26,13.66-.26,2.21-3,5.2-5.26,5.2h-68.2ZM260.82,12.9h67.2c1.21-.82,1-6.73.28-7.23l-66.24-.22-1.18.81-.07,6.63Z"/>
    <path d="M156.87.02l7.52,26.77-5.95-.04c-.52-.44-.72-6.95-3.27-6.43l-61.99.02c-1.76.33-2.4,4.83-2.79,6.41l-5.95.04L91.96.02h64.91ZM154.89,14.89c-.42-1.96-1.29-9.07-3.24-9.43l-55.24.23-2.48,9.2h60.96Z"/>
    <path d="M411.7.02l7.52,26.77-5.95-.04c-.52-.44-.72-6.95-3.27-6.43l-61.99.02c-1.76.33-2.4,4.83-2.79,6.41l-5.95.04L346.78.02h64.91ZM409.72,14.89c-.42-1.96-1.29-9.07-3.24-9.43l-55.24.23-2.48,9.2h60.96Z"/>
    <path d="M581.58.02l7.52,26.77-5.95-.04c-.52-.44-.72-6.95-3.27-6.43l-61.99.02c-1.76.33-2.4,4.83-2.79,6.41l-5.95.04L516.67.02h64.91ZM579.61,14.89c-.42-1.96-1.29-9.07-3.24-9.43l-55.24.23-2.48,9.2h60.96Z"/>
    <path d="M6,0v10.42h61.96L73.03.08l5.92.17c-1.09,4.03-6.85,10.68-5.77,14.65.4,1.45,6.27,11.44,5.76,11.89l-5.91-.08-5.08-10.34H6v10.42H0V0h6Z"/>
  </g>
</svg>