<?xml version="1.0" encoding="UTF-8"?>
<svg id="Layer_2" data-name="Layer 2" xmlns="http://www.w3.org/2000/svg" viewBox="0 0 585.87 27.97">
  <g id="Layer_1-2" data-name="Layer 1">
    <path d="M248.98,6.05h-73.2c-1.18,1.07-1.18,3.9,0,4.96h71.45l.67.82c.14.45.06.93.1,1.38.11,1.23.25,2.98-.77,3.75h-71.45c-1.18,1.07-1.18,3.9,0,4.96h73.2c-.26,1.91.72,4.51-.75,5.95h-78.45l-.75-.74V.84l.75-.74h78.45c1.47,1.44.49,4.04.75,5.95Z"/>
    <path d="M74.17,8.46c-.87-.8.6-2.07-3.29-2.43-19.5-1.78-41.72,1.4-61.51,0-2.21-.04-4.77,1.35-2.08,3.11s12.32.68,16.12.87c11.13.54,22.35,1.5,33.46,2,5.53.25,12.69-.8,17.84.64,7.65,2.13,7.14,14.04-.39,15.22l-67.93.04c-4.07-.49-7.3-5-5.95-8.95l4.9.07c1.22.43-.03,2.57,4.04,2.94,19.5,1.78,41.71-1.4,61.5,0,2.21.12,4.61-1.37,2.26-3.29-1.72-1.41-10.41-.53-13.3-.69-11.11-.6-22.35-1.52-33.46-2-5.25-.23-20.22,1.03-23.76-2.21C-1.85,9.67-.51,1.28,5.93.13h68.39c3.46,1,6.51,4.29,5.56,7.94l-.6.39c-.57.19-4.92.17-5.11,0Z"/>
    <path d="M562.52,12c5.53.25,12.69-.8,17.84.64,7.65,2.13,7.14,14.04-.39,15.22l-67.93.04c-4.14-.49-6.69-4.59-6.02-8.48.47-.65,4.2-.67,4.97-.4,1.22.43-.03,2.57,4.04,2.94,19.5,1.78,41.71-1.4,61.5,0,2.21.12,4.61-1.37,2.26-3.29-1.72-1.41-10.41-.53-13.3-.69-11.11-.6-22.35-1.52-33.46-2-6.65-.29-14.29.67-20.76-.72-7.2-1.54-7.6-13.9.31-15.13h68.39c3.46,1,6.51,4.29,5.56,7.94l-.6.39c-.57.19-4.92.17-5.11,0-.87-.8.6-2.07-3.29-2.43-19.5-1.78-41.72,1.4-61.51,0-2.21-.04-4.77,1.35-2.08,3.11"/>
    <path d="M295.95,6.05v15.88h35.23l.67.82c.14.45.06.93.1,1.38.11,1.23.25,2.98-.77,3.75h-76.45l-.67-.82c-.14-.45-.06-.93-.1-1.38-.11-1.23-.25-2.98.77-3.75h35.23V6.05h-35.23l-.67-.82c-.14-.45-.06-.93-.1-1.38-.11-1.23-.25-2.98.77-3.75h76.45l.67.82c.14.45.06.93.1,1.38.11,1.23.25,2.98-.77,3.75h-35.23Z"/>
    <path d="M420.87.84l.83-.67c.45-.14.93-.06,1.39-.1,1.24-.11,3-.24,3.77.77v19.85l3.22,1.26c19.79-1.4,42,1.78,61.51,0,1.3-.12,2.32-.19,3.22-1.26V.84l.83-.67c.45-.14.93-.06,1.39-.1,1.24-.11,3-.24,3.77.77v20.84c0,1.79-2.64,5.34-4.63,5.82l-69.08.39c-2.01.3-6.23-3.69-6.23-5.22V.84Z"/>
    <path d="M341.92.1v10.17l.75.74h60.46c1.84-1.73,4.52-9.42,5.96-10.46,1.03-.74,6.22-.79,6.27.28l-6.48,12.94,6.48,13.36c-.05,1.07-5.24,1.03-6.27.28-1.44-1.04-4.12-8.73-5.96-10.46h-60.46l-.75.74v10.17l-5.78-.46-.15-26.51c.5-1.51,4.57-.57,5.93-.81Z"/>
    <path d="M85.09.84l.83-.67c.45-.14.93-.06,1.39-.1,1.24-.11,3-.24,3.77.77v20.35l.75.74h72.45l.67.82c.14.45.06.93.1,1.38.11,1.23.25,2.98-.77,3.75h-78.45l-.75-.74V.84Z"/>
  </g>
</svg>